<?xml version="1.0" standalone="no"?>
<!DOCTYPE svg PUBLIC "-//W3C//DTD SVG 20010904//EN"
 "http://www.w3.org/TR/2001/REC-SVG-20010904/DTD/svg10.dtd">
<svg version="1.0" xmlns="http://www.w3.org/2000/svg"
 width="1200.000000pt" height="800.000000pt" viewBox="0 0 1200.000000 800.000000"
 preserveAspectRatio="xMidYMid meet">

<g transform="translate(0.000000,1000.000000) scale(0.100000,-0.100000)"
fill="#000000" stroke="none">
<path style="fill:rgb(255,84,42);" d="M6330 7540 c-19 -21 -37 -30 -59 -30 -36 0 -67 -27 -77 -66 -9 -33
18 -90 46 -99 12 -4 19 -10 18 -13 -2 -4 -12 -25 -22 -47 -97 -219 -150 -288
-246 -320 -45 -15 -75 -17 -184 -12 -197 9 -353 59 -446 143 l-43 39 7 -40
c12 -64 56 -153 91 -184 l33 -28 -38 -12 c-42 -12 -74 -41 -47 -41 9 0 28 -11
43 -24 l28 -23 -25 -13 c-13 -7 -32 -19 -41 -28 -16 -13 -15 -16 14 -36 17
-11 56 -57 86 -101 74 -109 114 -149 186 -182 54 -25 72 -28 161 -28 91 0 106
3 165 31 100 48 149 104 191 218 l19 51 -3 -82 c-8 -190 -129 -315 -336 -345
l-81 -12 44 -18 c25 -9 67 -20 95 -24 28 -4 51 -10 51 -15 0 -5 -18 -18 -41
-29 -34 -18 -40 -25 -37 -48 2 -18 11 -29 30 -36 22 -8 34 -4 74 22 59 40 83
40 151 1 59 -34 97 -34 108 2 12 35 -33 67 -117 83 -21 4 -38 10 -38 14 0 4
27 15 59 25 143 45 308 176 363 289 57 115 60 212 13 368 -14 46 -25 105 -25
130 0 41 5 53 42 95 41 47 42 47 90 42 39 -5 48 -3 48 9 0 19 -17 53 -40 79
-9 11 -20 35 -24 54 -3 19 -18 50 -33 70 -20 26 -26 44 -24 72 3 48 -20 72
-66 67 -20 -2 -33 0 -33 7 0 21 -46 55 -74 55 -18 0 -38 -11 -56 -30z m170
-225 c14 -17 5 -51 -16 -59 -22 -8 -54 11 -54 32 0 38 46 56 70 27z"/>
<path style="fill:rgb(255,203,60);" d="M2400 6300 l0 -70 1350 0 1350 0 0 70 0 70 -1350 0 -1350 0 0 -70z"/>
<path style="fill:rgb(255,203,60);" d="M6900 6300 l0 -70 1350 0 1350 0 0 70 0 70 -1350 0 -1350 0 0 -70z"/>
<path d="M4074 5600 c-103 -15 -178 -76 -209 -170 -48 -143 -45 -490 5 -624
26 -69 89 -128 157 -147 27 -7 84 -13 128 -12 171 1 256 77 284 253 24 151 17
427 -14 521 -25 75 -69 127 -128 154 -59 26 -148 36 -223 25z m140 -161 c44
-35 59 -110 59 -304 0 -276 -27 -345 -131 -345 -44 0 -54 4 -76 30 -42 51 -50
99 -51 305 0 276 22 335 126 335 32 0 55 -7 73 -21z"/>
<path d="M6217 5600 c-126 -16 -198 -84 -233 -222 -15 -58 -19 -109 -19 -253
1 -290 38 -400 153 -453 51 -23 68 -26 167 -24 60 0 133 5 160 9 l50 8 3 253
2 252 -130 0 -130 0 0 -80 0 -80 45 0 45 0 0 -105 0 -105 -55 0 c-46 0 -60 4
-80 24 -40 40 -49 95 -50 296 0 213 10 266 59 307 30 25 32 26 148 20 l118 -6
0 73 0 73 -88 12 c-49 6 -93 10 -98 10 -5 -1 -35 -5 -67 -9z"/>
<path d="M7674 5600 c-103 -15 -178 -76 -209 -170 -48 -143 -45 -490 5 -624
26 -69 89 -128 157 -147 27 -7 84 -13 128 -12 171 1 256 77 284 253 24 151 17
427 -14 521 -25 75 -69 127 -128 154 -59 26 -148 36 -223 25z m140 -161 c44
-35 59 -110 59 -304 0 -276 -27 -345 -131 -345 -44 0 -54 4 -76 30 -42 51 -50
99 -51 305 0 276 22 335 126 335 32 0 55 -7 73 -21z"/>
<path d="M2293 5588 c3 -7 59 -129 126 -271 l121 -258 0 -204 0 -205 90 0 90
0 0 214 0 213 76 159 c42 87 98 205 125 262 l48 102 -92 0 -92 0 -74 -185
c-41 -102 -77 -182 -80 -179 -3 2 -38 84 -77 182 l-72 177 -97 3 c-76 2 -96 0
-92 -10z"/>
<path d="M3150 5125 l0 -475 235 0 235 0 0 75 0 75 -145 0 -145 0 0 135 0 135
130 0 130 0 0 70 0 70 -130 0 -130 0 0 120 0 120 145 0 145 0 0 75 0 75 -235
0 -235 0 0 -475z"/>
<path d="M4690 5125 l0 -475 75 0 75 0 0 382 c0 210 4 378 8 373 5 -6 44 -161
86 -345 43 -184 82 -352 87 -372 l10 -38 129 0 130 0 0 475 0 475 -75 0 -75 0
0 -387 c0 -219 -4 -381 -9 -373 -5 8 -34 125 -65 260 -32 135 -71 302 -87 373
l-31 127 -129 0 -129 0 0 -475z"/>
<path d="M6750 5125 l0 -475 235 0 235 0 0 75 0 75 -145 0 -145 0 0 135 0 135
130 0 130 0 0 70 0 70 -130 0 -130 0 0 120 0 120 145 0 145 0 0 75 0 75 -235
0 -235 0 0 -475z"/>
<path d="M8730 5125 l0 -475 225 0 225 0 0 80 0 80 -135 0 -135 0 0 395 0 395
-90 0 -90 0 0 -475z"/>
<path d="M9310 5530 l0 -70 50 0 50 0 0 -335 0 -335 -50 0 -50 0 0 -70 0 -70
185 0 185 0 0 70 0 70 -50 0 -50 0 0 335 0 335 50 0 50 0 0 70 0 70 -185 0
-185 0 0 -70z"/>

</g>
</svg>
